ply
format ascii 1.0
comment Created by Blender 2.79 (sub 0) - www.blender.org, source file: ''
element vertex 96
property float x
property float y
property float z
property float nx
property float ny
property float nz
element face 32
property list uchar uint vertex_indices
end_header
0.000000 -0.000000 10.000000 0.069476 -0.705398 0.705398
0.000000 -10.000000 -0.000000 0.069476 -0.705398 0.705398
1.950903 -0.000000 9.807853 0.069476 -0.705398 0.705398
1.950903 -0.000000 9.807853 0.205757 -0.705398 0.678290
0.000000 -10.000000 -0.000000 0.205757 -0.705398 0.678290
3.826835 -0.000000 9.238795 0.205757 -0.705398 0.678290
3.826835 -0.000000 9.238795 0.334131 -0.705398 0.625116
0.000000 -10.000000 -0.000000 0.334131 -0.705398 0.625116
5.555702 -0.000000 8.314696 0.334131 -0.705398 0.625116
5.555702 -0.000000 8.314696 0.449665 -0.705398 0.547919
0.000000 -10.000000 -0.000000 0.449665 -0.705398 0.547919
7.071068 -0.000000 7.071068 0.449665 -0.705398 0.547919
7.071068 -0.000000 7.071068 0.547919 -0.705398 0.449665
0.000000 -10.000000 -0.000000 0.547919 -0.705398 0.449665
8.314696 -0.000000 5.555702 0.547919 -0.705398 0.449665
8.314696 -0.000000 5.555702 0.625116 -0.705398 0.334131
0.000000 -10.000000 -0.000000 0.625116 -0.705398 0.334131
9.238795 0.000000 3.826834 0.625116 -0.705398 0.334131
9.238795 0.000000 3.826834 0.678290 -0.705398 0.205757
0.000000 -10.000000 -0.000000 0.678290 -0.705398 0.205757
9.807853 0.000000 1.950904 0.678290 -0.705398 0.205757
9.807853 0.000000 1.950904 0.705398 -0.705398 0.069476
0.000000 -10.000000 -0.000000 0.705398 -0.705398 0.069476
10.000000 0.000000 0.000001 0.705398 -0.705398 0.069476
10.000000 0.000000 0.000001 0.705398 -0.705398 -0.069476
0.000000 -10.000000 -0.000000 0.705398 -0.705398 -0.069476
9.807853 0.000000 -1.950902 0.705398 -0.705398 -0.069476
9.807853 0.000000 -1.950902 0.678290 -0.705398 -0.205757
0.000000 -10.000000 -0.000000 0.678290 -0.705398 -0.205757
9.238795 0.000000 -3.826833 0.678290 -0.705398 -0.205757
9.238795 0.000000 -3.826833 0.625116 -0.705398 -0.334131
0.000000 -10.000000 -0.000000 0.625116 -0.705398 -0.334131
8.314696 0.000000 -5.555702 0.625116 -0.705398 -0.334131
8.314696 0.000000 -5.555702 0.547919 -0.705398 -0.449665
0.000000 -10.000000 -0.000000 0.547919 -0.705398 -0.449665
7.071068 0.000000 -7.071068 0.547919 -0.705398 -0.449665
7.071068 0.000000 -7.071068 0.449665 -0.705398 -0.547919
0.000000 -10.000000 -0.000000 0.449665 -0.705398 -0.547919
5.555702 0.000000 -8.314696 0.449665 -0.705398 -0.547919
5.555702 0.000000 -8.314696 0.334131 -0.705398 -0.625116
0.000000 -10.000000 -0.000000 0.334131 -0.705398 -0.625116
3.826833 0.000000 -9.238796 0.334131 -0.705398 -0.625116
3.826833 0.000000 -9.238796 0.205757 -0.705398 -0.678290
0.000000 -10.000000 -0.000000 0.205757 -0.705398 -0.678290
1.950901 0.000000 -9.807853 0.205757 -0.705398 -0.678290
1.950901 0.000000 -9.807853 0.069476 -0.705398 -0.705398
0.000000 -10.000000 -0.000000 0.069476 -0.705398 -0.705398
-0.000003 0.000000 -10.000000 0.069476 -0.705398 -0.705398
-0.000003 0.000000 -10.000000 -0.069476 -0.705398 -0.705398
0.000000 -10.000000 -0.000000 -0.069476 -0.705398 -0.705398
-1.950907 0.000000 -9.807852 -0.069476 -0.705398 -0.705398
-1.950907 0.000000 -9.807852 -0.205758 -0.705398 -0.678290
0.000000 -10.000000 -0.000000 -0.205758 -0.705398 -0.678290
-3.826839 0.000000 -9.238793 -0.205758 -0.705398 -0.678290
-3.826839 0.000000 -9.238793 -0.334131 -0.705398 -0.625116
0.000000 -10.000000 -0.000000 -0.334131 -0.705398 -0.625116
-5.555707 0.000000 -8.314693 -0.334131 -0.705398 -0.625116
-5.555707 0.000000 -8.314693 -0.449666 -0.705398 -0.547918
0.000000 -10.000000 -0.000000 -0.449666 -0.705398 -0.547918
-7.071073 0.000000 -7.071064 -0.449666 -0.705398 -0.547918
-7.071073 0.000000 -7.071064 -0.547919 -0.705398 -0.449665
0.000000 -10.000000 -0.000000 -0.547919 -0.705398 -0.449665
-8.314700 0.000000 -5.555696 -0.547919 -0.705398 -0.449665
-8.314700 0.000000 -5.555696 -0.625116 -0.705398 -0.334131
0.000000 -10.000000 -0.000000 -0.625116 -0.705398 -0.334131
-9.238798 0.000000 -3.826827 -0.625116 -0.705398 -0.334131
-9.238798 0.000000 -3.826827 -0.678290 -0.705398 -0.205756
0.000000 -10.000000 -0.000000 -0.678290 -0.705398 -0.205756
-9.807855 0.000000 -1.950894 -0.678290 -0.705398 -0.205756
-9.807855 0.000000 -1.950894 -0.705398 -0.705398 -0.069475
0.000000 -10.000000 -0.000000 -0.705398 -0.705398 -0.069475
-10.000000 0.000000 0.000010 -0.705398 -0.705398 -0.069475
-10.000000 0.000000 0.000010 -0.705398 -0.705398 0.069476
0.000000 -10.000000 -0.000000 -0.705398 -0.705398 0.069476
-9.807851 0.000000 1.950914 -0.705398 -0.705398 0.069476
-9.807851 0.000000 1.950914 -0.678290 -0.705398 0.205758
0.000000 -10.000000 -0.000000 -0.678290 -0.705398 0.205758
-9.238791 0.000000 3.826845 -0.678290 -0.705398 0.205758
-9.238791 0.000000 3.826845 -0.625115 -0.705398 0.334132
0.000000 -10.000000 -0.000000 -0.625115 -0.705398 0.334132
-8.314690 -0.000000 5.555713 -0.625115 -0.705398 0.334132
-8.314690 -0.000000 5.555713 -0.547918 -0.705398 0.449666
0.000000 -10.000000 -0.000000 -0.547918 -0.705398 0.449666
-7.071059 -0.000000 7.071076 -0.547918 -0.705398 0.449666
-7.071059 -0.000000 7.071076 -0.449665 -0.705398 0.547919
0.000000 -10.000000 -0.000000 -0.449665 -0.705398 0.547919
-5.555691 -0.000000 8.314704 -0.449665 -0.705398 0.547919
-5.555691 -0.000000 8.314704 -0.334130 -0.705398 0.625116
0.000000 -10.000000 -0.000000 -0.334130 -0.705398 0.625116
-3.826821 -0.000000 9.238801 -0.334130 -0.705398 0.625116
-3.826821 -0.000000 9.238801 -0.205756 -0.705398 0.678290
0.000000 -10.000000 -0.000000 -0.205756 -0.705398 0.678290
-1.950888 -0.000000 9.807856 -0.205756 -0.705398 0.678290
-1.950888 -0.000000 9.807856 -0.069475 -0.705398 0.705398
0.000000 -10.000000 -0.000000 -0.069475 -0.705398 0.705398
0.000000 -0.000000 10.000000 -0.069475 -0.705398 0.705398
3 0 1 2
3 3 4 5
3 6 7 8
3 9 10 11
3 12 13 14
3 15 16 17
3 18 19 20
3 21 22 23
3 24 25 26
3 27 28 29
3 30 31 32
3 33 34 35
3 36 37 38
3 39 40 41
3 42 43 44
3 45 46 47
3 48 49 50
3 51 52 53
3 54 55 56
3 57 58 59
3 60 61 62
3 63 64 65
3 66 67 68
3 69 70 71
3 72 73 74
3 75 76 77
3 78 79 80
3 81 82 83
3 84 85 86
3 87 88 89
3 90 91 92
3 93 94 95
